# xmcd
#
# Track frame offsets:
#	150
#	22661
#	48457
#	64255
#	91893
#	111794
#	128084
#	147066
#	171657
#	196270
#	209049
#	219910
#	231935
#	245602
#	261771
#	283159
#	302427
#	317477
#	334455
#
# Disc length: 4700 seconds
#
# Revision: 0
# Processed by: cddbd v1.5.2PL0 Copyright (c) Steve Scherf et al.
# Submitted via: EZCDAudioConverter 9.0.6.1
#
DISCID=1c125a13
DTITLE=Various Artist - Saturday Night Blues Party Vol. 4 - Saturday Night Bl
DTITLE=ues Party Vol. 4
DYEAR=1900
DGENRE=Blues
TTITLE0=Bigg Robb and Carl Marshall - Good Loving Will Make You Cry(Remix)
TTITLE1=Roshell Anderson  - Know What You're Doing When You Leave
TTITLE2=Roshell Anderson  - Grapevine Will Lie Sometimes
TTITLE3=Roshell Anderson  - Snake Out Of Green Grass (Part 1 and Part 2)
TTITLE4=Larry Graham - Just Be My Lady
TTITLE5=Larry Graham - When We Get Married
TTITLE6=Larry Graham - One In A Million You
TTITLE7=Donny Hathaway - I Love You More Than You'll Ever Know
TTITLE8=Donny Hathaway - A Song For You
TTITLE9=James Carr - A Man Needs A Woman
TTITLE10=Brenton Wood  - I Like the Way You Love Me
TTITLE11=Aaron Neville - Tell It Like It Is
TTITLE12=Joe Simon - Your Time To Cry
TTITLE13=Luther Ingram - If Loving You Is wrong ( I Don't Want To Be Right)
TTITLE14=The Floaters - You Don't Have to Say You Love Me
TTITLE15=Ray Goodman and Brown - Special Lady
TTITLE16=The Four Tops - WhenShe Was My Girl
TTITLE17=James Ingram - There's No Easy Way
TTITLE18=James Ingram - I Don't Have A Heart
EXTD=
EXTT0=
EXTT1=
EXTT2=
EXTT3=
EXTT4=
EXTT5=
EXTT6=
EXTT7=
EXTT8=
EXTT9=
EXTT10=
EXTT11=
EXTT12=
EXTT13=
EXTT14=
EXTT15=
EXTT16=
EXTT17=
EXTT18=
PLAYORDER=
